# xmcd CD database file
#
# Track frame offsets:
#	150
#	18429
#	33276
#	53348
#	69088
#	84670
#	99287
#	116429
#	131033
#	147133
#	163167
#	183539
#
# Disc length: 2734 seconds
#
# Revision: 10
# Processed by: cddbd v1.4PL0 Copyright (c) Steve Scherf et al.
# Submitted via: CDex 1.40Beta9
#
DISCID=930aac0c
DTITLE=Lonestar - Lonely Grill
DYEAR=2001
DGENRE=Country
TTITLE0=Saturday Night
TTITLE1=Simple As That
TTITLE2=Amazed
TTITLE3=What About Now
TTITLE4=Tell Her
TTITLE5=Don't Let's Talk About Lisa
TTITLE6=I've Gotta Find You
TTITLE7=You Don't Know What Love Is
TTITLE8=All The Way
TTITLE9=Smile
TTITLE10=Lonely Grill
TTITLE11=Everything's Changed
EXTD=YEAR: 2001 ID3G: 2
EXTT0=
EXTT1=
EXTT2=
EXTT3=
EXTT4=
EXTT5=
EXTT6=
EXTT7=
EXTT8=
EXTT9=
EXTT10=
EXTT11=
PLAYORDER=
